IKResults-ET3
version=1
nRows=12
nColumns=24
inDegrees=yes

Units are S.I. units (second, meters, Newtons, ...)
If the header above contains a line with 'inDegrees', this indicates whether rotational values are in degrees (yes) or radians (no).

endheader
time	pelvis_tilt	pelvis_list	pelvis_rotation	pelvis_tx	pelvis_ty	pelvis_tz	hip_flexion_r	hip_adduction_r	hip_rotation_r	knee_angle_r	ankle_angle_r	subtalar_angle_r	mtp_angle_r	hip_flexion_l	hip_adduction_l	hip_rotation_l	knee_angle_l	ankle_angle_l	subtalar_angle_l	mtp_angle_l	lumbar_extension	lumbar_bending	lumbar_rotation
      5.08000000	     -0.68491157	      3.17576435	    177.63719623	     -0.02995000	      0.98484834	     -0.15319241	    -11.12341504	      6.83696087	      5.32409891	    -13.07105095	     19.75830163	      9.70517737	      0.00000000	     33.52911933	     -5.74191173	     -1.93682965	    -16.43843054	     16.15559192	      5.57751440	      0.00000000	    -15.95504759	     -0.26633808	      8.42829895
      5.09000000	     -0.36974168	      3.22028454	    177.17602938	     -0.04509089	      0.98190623	     -0.15227053	    -11.57914785	      6.67857211	      5.35412990	    -13.43116521	     20.20175255	     10.01520896	      0.00000000	     33.78703634	     -5.73188579	     -0.90434413	    -14.14501382	     16.22395337	      6.23142550	      0.00000000	    -15.70680836	     -0.38709481	      9.04695633
      5.10000000	     -0.09692132	      3.19036276	    176.73883184	     -0.06034075	      0.97895972	     -0.15129100	    -12.03421791	      6.43374925	      5.27539082	    -13.87715503	     20.54622285	     10.43045758	      0.00000000	     34.03967550	     -5.64809179	     -0.04397496	    -12.36904675	     16.52730737	      6.27249551	      0.00000000	    -15.51495895	     -0.61488107	      9.59974568
      5.11000000	      0.13208597	      3.12208981	    176.36033542	     -0.07585286	      0.97602321	     -0.15019899	    -12.50859020	      6.15229297	      5.16868532	    -14.39534639	     20.92746030	     10.98426219	      0.00000000	     34.30981849	     -5.50482960	      0.27897924	    -11.24724059	     16.68275172	      5.75528980	      0.00000000	    -15.37494735	     -0.77871104	     10.46305564
      5.12000000	      0.32333376	      2.96220133	    176.03811384	     -0.09161074	      0.97304195	     -0.14903141	    -12.99212723	      5.78510385	      5.12964671	    -15.00271521	     21.29754300	     11.15375002	      0.00000000	     34.59940226	     -5.25328273	      0.20688483	    -10.83469521	     16.71343789	      4.59744152	      0.00000000	    -15.19268348	     -1.14506712	     10.87993563
      5.13000000	      0.52194684	      2.76830406	    175.76710468	     -0.10769863	      0.96999524	     -0.14768900	    -13.43982873	      5.38901309	      5.09646639	    -15.69239062	     21.62839559	     11.24419063	      0.00000000	     34.89603056	     -4.94696198	      0.18183119	    -11.01954107	     16.60716937	      3.56464839	      0.00000000	    -14.93548657	     -1.53101793	     11.23189080
      5.14000000	      0.69520098	      2.57867861	    175.51049063	     -0.12418561	      0.96693813	     -0.14643462	    -13.89492801	      5.02019780	      5.26069379	    -16.43668723	     21.84416038	     11.18138451	      0.00000000	     35.24775002	     -4.67415216	      0.03511987	    -11.99384639	     16.74254808	      3.45328211	      0.00000000	    -14.69159648	     -1.96616818	     11.33734922
      5.15000000	      0.81658058	      2.33970168	    175.31052148	     -0.14101793	      0.96400171	     -0.14515310	    -14.37207881	      4.61875569	      5.42549871	    -17.26578762	     21.91537050	     10.82935605	      0.00000000	     35.50860228	     -4.32572281	      0.04385968	    -13.43945977	     16.78498923	      3.19440774	      0.00000000	    -14.42175037	     -2.42703261	     11.75939876
      5.16000000	      0.90400200	      2.06915836	    175.14622270	     -0.15829014	      0.96129814	     -0.14379523	    -14.84997466	      4.18676446	      5.54106310	    -18.16214638	     21.81030108	     10.68902262	      0.00000000	     35.61007262	     -3.90878900	      0.07616089	    -15.13982384	     16.96403617	      3.07713834	      0.00000000	    -14.22595111	     -2.97621864	     11.81077678
      5.17000000	      0.93560274	      1.76358775	    175.01942880	     -0.17604475	      0.95896481	     -0.14233139	    -15.36528492	      3.73615439	      5.70940642	    -19.08796391	     21.20813967	      9.84421814	      0.00000000	     35.50695999	     -3.38829811	      0.18195986	    -16.97211670	     16.83111065	      2.15728221	      0.00000000	    -13.95638869	     -3.56818758	     12.03664525
      5.18000000	      1.04596448	      1.45273342	    174.91434740	     -0.19407452	      0.95677317	     -0.14084368	    -15.72070897	      3.28602584	      5.72815815	    -20.12243895	     20.38522359	      9.29448726	      0.00000000	     35.32961588	     -2.83729154	      0.49792101	    -18.51362481	     16.90650598	      0.54424488	      0.00000000	    -13.60452983	     -4.16492531	     12.15181925
      5.19000000	      1.31006615	      1.15200173	    174.73527919	     -0.21201283	      0.95470037	     -0.13958196	    -15.76967236	      2.84744269	      5.73966509	    -21.31583025	     19.40539304	      8.97978860	      0.00000000	     35.17247596	     -2.36860420	      0.75524071	    -19.16104217	     16.09912315	     -1.27360111	      0.00000000	    -13.09383842	     -4.76460719	     12.26262235
